<svg xmlns="http://www.w3.org/2000/svg" xmlns:xlink="http://www.w3.org/1999/xlink" viewBox="0 0 713.08 500.38"><defs><style>.cls-1,.cls-10,.cls-11{fill:#231f20;}.cls-2{fill:#fff;}.cls-3,.cls-4,.cls-5,.cls-6,.cls-7,.cls-8,.cls-9{fill:none;stroke:#fff;}.cls-11,.cls-3,.cls-4,.cls-5,.cls-6,.cls-7,.cls-8,.cls-9{stroke-miterlimit:10;}.cls-3,.cls-4,.cls-5,.cls-6,.cls-7{stroke-width:0.45px;}.cls-4{stroke-dasharray:1.75 1.75;}.cls-5{stroke-dasharray:1.8 1.8;}.cls-6{stroke-dasharray:1.73 1.73;}.cls-7{stroke-dasharray:1.86 1.86;}.cls-8{stroke-width:1.54px;}.cls-9{stroke-width:1.59px;}.cls-10,.cls-11{stroke:#231f20;}.cls-10{stroke-width:11.3px;}.cls-11{stroke-width:7.49px;}.cls-12{fill:url(#linear-gradient);}</style><linearGradient id="linear-gradient" x1="344.51" y1="259.45" x2="522.27" y2="259.45" gradientUnits="userSpaceOnUse"><stop offset="0" stop-color="#53b848"/><stop offset="0.5" stop-color="#c6d92d"/><stop offset="1" stop-color="#3d9339"/></linearGradient></defs><title>Asset 1</title><g id="Layer_2" data-name="Layer 2"><g id="Layer_1-2" data-name="Layer 1"><circle class="cls-1" cx="550.82" cy="77.62" r="12.73"/><circle class="cls-1" cx="317.31" cy="25.1" r="24.68"/><path class="cls-1" d="M428.25,28.7A19.27,19.27,0,1,0,447.51,9.44,19.26,19.26,0,0,0,428.25,28.7Z"/><circle class="cls-1" cx="194.28" cy="66.35" r="26.94"/><path class="cls-2" d="M194,94.15a27.87,27.87,0,0,1-27.74-28.25c0-15.07,12.74-27.39,28.17-27.35,15.16,0,27.47,12.71,27.43,28.24C221.83,81.73,209.14,94.19,194,94.15ZM203.38,70c-.35-.15-.53-.24-.72-.3a11.62,11.62,0,0,1-8-8.47c-.68-2.43-1.19-4.92-1.69-7.39a33.13,33.13,0,0,0-4-11.4c-.37-.58-.61-1.07-1.58-.79a26.05,26.05,0,0,0-14.09,9.84,80.71,80.71,0,0,0,28.11,23.16ZM172,53.4a24.67,24.67,0,0,0-3.22,16.55,2.4,2.4,0,0,0,.94,1.34,25.46,25.46,0,0,0,10.75,4.76c5.93,1.08,12.17.52,17.79,3.46l2-3A84,84,0,0,1,172,53.4Zm32,14.36c2.16-5.14,2.95-19,1.38-23.92a1.42,1.42,0,0,0-.64-.79,25.13,25.13,0,0,0-13.86-2.11,57,57,0,0,1,2.69,6.49c1,3.7,1.77,7.49,2.62,11.24C197.14,63,199.08,66.6,204,67.76ZM169.74,74c1.7,6.76,8.42,14,14.65,16.07a1.49,1.49,0,0,0,1,0,36,36,0,0,0,11.56-9,49.8,49.8,0,0,0-5.5-1.49c-3.18-.49-6.4-.7-9.6-1.1A27.78,27.78,0,0,1,169.74,74Zm36.61-6.2a12.81,12.81,0,0,0,9.31-4.48c2.33-3,2.68-6.3.71-9.5a37.67,37.67,0,0,0-4.2-5.53,38.73,38.73,0,0,0-4.1-3.47A66.17,66.17,0,0,1,206.34,67.78Zm12.87-6.3c-2.67,5.73-7.32,7.94-13,8.61a1.22,1.22,0,0,0-.84.58c-.71,1.57-1.34,3.18-2.16,5.16,4.06,1.25,8,2.49,12,3.64a1.44,1.44,0,0,0,1.19-.63A25.23,25.23,0,0,0,219.22,61.48Zm-4.7,20.29-12.38-4.15-1.87,2.86c4.24,3.11,4.84,4.22,4.89,9A25.06,25.06,0,0,0,214.52,81.77Zm-15.15.59-10.89,9a25.32,25.32,0,0,0,11.44-.05c2.87-.65,4.11-3.36,2.46-5.83A21.62,21.62,0,0,0,199.38,82.36Z"/><path class="cls-2" d="M314.62,0H320a2.45,2.45,0,0,0,.55.21,25.1,25.1,0,1,1-26.93,33.11c-.63-1.79-.94-3.69-1.4-5.54V22.37a2.67,2.67,0,0,0,.21-.55C294,11.84,299.56,5,309,1.45A49.71,49.71,0,0,1,314.62,0ZM309,36.91c2.7-.24,5.26-.44,7.82-.74a1.82,1.82,0,0,0,1.22-.89c1-2.26,2-4.58,3-6.85a1.52,1.52,0,0,0-.2-1.77c-1.67-2.17-3.23-4.42-4.92-6.57a2,2,0,0,0-1.5-.63c-2.4.24-4.78.59-7.16,1a1.46,1.46,0,0,0-.92.77c-1.05,2.44-2.07,4.89-3,7.36a2,2,0,0,0,.17,1.54c1.24,2,2.61,4,3.88,6C307.81,36.75,308.26,37.21,309,36.91Zm15.69-27v.18c-1.27,0-2.53,0-3.8,0-.79,0-1.13.31-1.39,1-.78,2.1-1.63,4.18-2.5,6.25a1.45,1.45,0,0,0,.16,1.67c1.72,2.24,3.35,4.54,5.08,6.76a1.92,1.92,0,0,0,1.39.68c2.36-.13,4.72-.34,7.08-.62a1.64,1.64,0,0,0,1.1-.83c.89-2,1.74-4,2.49-6.12a2.31,2.31,0,0,0-.19-1.75c-1-1.71-2.34-3.26-3.3-5s-2.18-2.7-4.26-2.23A8.61,8.61,0,0,1,324.69,9.93Zm-.09,32.62c-2.11-1.56-4.1-3.06-6.13-4.5a1.85,1.85,0,0,0-1.13-.24c-2.4.17-4.8.44-7.21.58-1.4.08-2.35.48-2.58,2.05A10.38,10.38,0,0,1,306.7,43a.94.94,0,0,0,.38,1.34c1.15.85,2.32,1.69,3.38,2.64a5.09,5.09,0,0,0,4.08,1.23c2.24-.21,4.47-.47,6.69-.77a1.48,1.48,0,0,0,.93-.64C323,45.43,323.74,44,324.59,42.54Zm-21.81-30c-1.54.19-2.89.29-4.2.56a1.91,1.91,0,0,0-1.24.9c-1.07,2.47-2,5-3,7.49a2.69,2.69,0,0,0-.31,1.4c.52,2.32,1.14,4.63,1.75,7,1.84-.39,3.48-.69,5.09-1.11a1.74,1.74,0,0,0,.95-.93c1.08-2.51,2.11-5,3.13-7.57a1.5,1.5,0,0,0,.15-.91C304.34,17.13,303.56,14.86,302.78,12.56Zm38.31,12.63c-.41-1.77-.77-3.56-1.23-5.32-.21-.78-3.22-1.48-3.77-.92a2,2,0,0,0-.32.66,21.34,21.34,0,0,1-1,2.37,10.91,10.91,0,0,0-.93,9.49,7.39,7.39,0,0,1,.24,1.2c.49,2.68.5,2.62,3.15,3a1.07,1.07,0,0,0,1.37-.76A29.56,29.56,0,0,0,341.09,25.19ZM312.47,5.12c2.08,1,4.08,2,6.12,2.95a5.21,5.21,0,0,0,2.11.44c2.41,0,4.83-.18,7.24-.18a1.25,1.25,0,0,0,1.42-1.11c.47-1.69.29-2.18-1.31-3a21.57,21.57,0,0,0-11.22-2.59C312.72,1.85,313.63,1.26,312.47,5.12Zm24.79,32.33c-1.82-.57-3.27-.6-4.7.68A57.07,57.07,0,0,1,327.37,42c-1.9,1.34-2.45,3.51-3.5,5.41A22.79,22.79,0,0,0,337.25,37.46ZM311.49,2.34a23.79,23.79,0,0,0-13.21,9.06c3,0,5.49-.6,7.57-2.64A19.71,19.71,0,0,1,309.47,6C310.83,5.22,311.2,4,311.49,2.34Zm-8.1,40.94-.32.49,2.77,1.78.27-.42Z"/><path class="cls-3" d="M445.92,47.87,445.6,47"/><path class="cls-4" d="M445,45.39c-1.5-4.35-3.33-11.83-.17-19.13a23.89,23.89,0,0,1,12.29-12.61"/><path class="cls-3" d="M457.93,13.34c.32-.11.61-.19.86-.25"/><path class="cls-3" d="M444.08,48c-.09-.25-.19-.53-.3-.85"/><path class="cls-5" d="M443.23,45.41c-1.37-4.66-2.88-12.83.27-20.11a26,26,0,0,1,12.34-12.76"/><path class="cls-3" d="M456.65,12.16l.83-.34"/><path class="cls-3" d="M438.8,45.89q-.1-.41-.21-.87"/><path class="cls-6" d="M438.22,43.33c-1-4.88-1.61-12.48,1.32-19.27A28.91,28.91,0,0,1,450.71,10.9"/><path class="cls-3" d="M451.46,10.45l.79-.43"/><path class="cls-3" d="M437.14,44.91q-.1-.42-.19-.88"/><path class="cls-7" d="M436.6,42.21c-.83-4.87-1.19-11.86,1.52-18.15a30.36,30.36,0,0,1,11-13.66"/><path class="cls-3" d="M449.9,9.92c.5-.29.79-.42.79-.42"/><path class="cls-8" d="M456.92,10c-16,5.95-17.05,21.89-17.05,21.89A29.2,29.2,0,0,0,441.52,47l2,3.2"/><path class="cls-9" d="M549.2,64.89s.19,3.5-1.81,5.56-6.26,4.82-4.82,10,6.91,5.7,7.21,5.73a8.06,8.06,0,0,0,6.31-3.41,8.58,8.58,0,0,1,6.26-3.69h1.21"/><path class="cls-1" d="M632.09,329.25c4.24-5.84,8.66-11.54,13-17.3l1.32-.13c2.16,6.58,4.41,13.13,6.43,19.75.62,2,.84,4,3.68,3.81.52,0,1.23.64,1.61,1.17,2.66,3.7,6.59,5,10.69,6.53a128.69,128.69,0,0,1,19,8.54c4.94,2.8,5.79,8.42,3.11,13.57-.6,1.15-1.39,2.21-2.08,3.32-1.71,2.72-.69,5,2.39,5.34a12,12,0,0,0,13.06-9.32,11.47,11.47,0,0,1,2.77-4.35c2-2.3,1.78-4.12-.58-6-7.47-5.9-14.76-12-22.38-17.71a26.05,26.05,0,0,0-8.69-3.79c-2.07-.56-3-1.47-3.33-3.41s-.48-3.78-.79-5.65c-.93-5.62-1.9-11.23-2.81-16.85-1.21-7.47,1.74-24.7,1.74-24.7-.51-4.5,1.78-9.32,2.91-14,.75-3.09,1.68-6.13,2.48-9.2s2.57-4.16,5.51-2.6c7.05,3.74,14.11,4,22.52,4.25.77,0,2.66-1.39,3.18-2.54,3-6.61,3.36-13.71,3.35-20.87a7,7,0,0,1,1.31-4.46c2.5-2.64,1.68-4.94-.26-7.09a97.28,97.28,0,0,0-8.49-8.6c-5.5-4.78-6.63-11.26-7.51-17.88a25.25,25.25,0,0,0-11.7-18.67,21.58,21.58,0,0,0-7.83-3.07c-6.75-1.18-10.67,3.94-8.18,10.34,2.24,5.75,6.33,10,11.27,13.45,3,2.11,6.23,3.92,9.36,5.86,7.37,4.57,11.13,12.15,15.85,18.94.13.19.34.44.31.62-1.53,7.64.32,16-5,23l-31.44-16c.89-1,1.63-2.5,2.82-3,7.31-3.21,8.72-13.08,4.44-18.91-3.28-4.46-6.88-6.52-12.08-6.76-3.33-.16-4.51,2.24-5.87,4.49s-2.76,4.65-4.6,7.74c-.23.74-.39,2.71-1.4,4.06-1.52,2-.95,3.15.83,4.32a3.74,3.74,0,0,1,1.53,1.45,7.42,7.42,0,0,1,.07,2.43c-.8-.23-2.08-.24-2.31-.73-3.11-6.68-8-12.74-7.16-20.84a107.34,107.34,0,0,0,.33-12.38c-.12-7.12-.45-14.24-.62-21.36a27.57,27.57,0,0,1,.49-4.22c.51-3.79.28-7.23-3.08-10-1.2-1-1.63-2.89-3.11-4.18-.73-.8-4.77.2-4.77.2-2.9,1.68-2.2,4.26-1.29,6.44,1.36,3.25,3.3,6.26,4.81,9.45a8,8,0,0,1,.81,3.92c-.46,5.19-1,10.38-1.77,15.53a76.81,76.81,0,0,0-.3,21.63c.34,2.55-.54,5.26-.8,7.9a8.33,8.33,0,0,0,.12,2.46c3.24,15.69.81,31.14-1.89,46.58-.65,3.72-1.13,7.48-2,11.15-.59,2.57-.17,4.17,3.2,4.39a39.15,39.15,0,0,1-1.81,3.75c-6,9.45-12.08,18.8-17.85,28.36-2,3.31-3.06,7.19-4.68,10.74s-.48,6.18,2.44,8.34c3.82,2.83,7.77,5.5,11.43,8.54a114.15,114.15,0,0,1,9.3,8.82c4.45,4.64,4,9.56-1,13.83-1.72,1.46-3.66,2.68-5.23,4.27a3.52,3.52,0,0,0-.85,3,3.34,3.34,0,0,0,2.6,1.7c5.33-.15,10.62-.19,14.39-5.27,1.35-1.83,4.14-2.62,6.32-3.79,4.2-2.25,4.43-3.42,2.23-7.65-1.25-2.41-3.12-3.77-5.3-5.25a29.46,29.46,0,0,1-10.54-13.19,21.38,21.38,0,0,0-8.73-10S630.42,331.55,632.09,329.25Z"/><path class="cls-10" d="M569.25,222.71a33.57,33.57,0,0,0-11.4-10Q550.89,209,541,209a36,36,0,0,0-10.24,1.55,29.72,29.72,0,0,0-9.47,4.74,24.24,24.24,0,0,0-6.86,8,23.66,23.66,0,0,0-2.61,11.4,21.12,21.12,0,0,0,2.5,10.83,23.79,23.79,0,0,0,6.65,7.25,38.44,38.44,0,0,0,9.45,4.93q5.29,1.93,11.08,3.86,7.13,2.32,14.36,5a51.65,51.65,0,0,1,13,7.05,34.18,34.18,0,0,1,9.44,11q3.66,6.67,3.66,16.91a37.52,37.52,0,0,1-3.91,17.68,37,37,0,0,1-10.14,12.27,42.14,42.14,0,0,1-14.26,7.15A57.82,57.82,0,0,1,537.55,341a62.23,62.23,0,0,1-12.37-1.26A56.07,56.07,0,0,1,513.39,336,48.14,48.14,0,0,1,503,329.58a46.51,46.51,0,0,1-8.5-8.89l12-8.89a36.66,36.66,0,0,0,12.46,12.27A35.26,35.26,0,0,0,537.75,329a36.44,36.44,0,0,0,10.63-1.64,29.93,29.93,0,0,0,9.76-5,27.85,27.85,0,0,0,7.15-8.31,25.82,25.82,0,0,0,0-23.39,25.11,25.11,0,0,0-7.44-7.92,45.81,45.81,0,0,0-10.63-5.32q-6-2.12-12.56-4.25-6.77-2.12-13.34-4.83a45.08,45.08,0,0,1-11.79-7.06,33,33,0,0,1-8.41-10.73q-3.18-6.38-3.19-15.65a34.57,34.57,0,0,1,4-17,35.89,35.89,0,0,1,10.34-11.79,43.45,43.45,0,0,1,14.11-6.76,57.44,57.44,0,0,1,15.27-2.12q13.91,0,23.77,4.93t14.88,11.69Z"/><path class="cls-1" d="M171.72,338.86H157.47V198.78h41.15a87.31,87.31,0,0,1,19.09,2A43.1,43.1,0,0,1,233,207.19a30.37,30.37,0,0,1,10,11.58q3.56,7.12,3.56,17.41a34.28,34.28,0,0,1-10.29,25,36,36,0,0,1-11.28,7.42,48.89,48.89,0,0,1-14.25,3.56l35.52,66.67h-6.54l-44.21-65.49H171.72Zm0-77.76h24.73q17.21,0,26.51-6.23t9.3-18.69a24.26,24.26,0,0,0-2.57-11.67,21.07,21.07,0,0,0-7.12-7.72,32.41,32.41,0,0,0-11.08-4.35A69.76,69.76,0,0,0,197,211H171.72Z"/><path class="cls-1" d="M250.25,346.18H216.61l-25.32-65.49H179v65.49H150.15V191.46h48.48a95,95,0,0,1,20.69,2.16,50.59,50.59,0,0,1,17.8,7.55,37.77,37.77,0,0,1,12.37,14.32c2.87,5.74,4.33,12.7,4.33,20.69a41.58,41.58,0,0,1-12.49,30.26,43.35,43.35,0,0,1-13.54,8.92,52,52,0,0,1-5.37,1.94Zm-6.41-14.65H244L240,325ZM179,253.78h17.41c9.94,0,17.49-1.68,22.44-5,4.13-2.77,6.05-6.77,6.05-12.61a17.24,17.24,0,0,0-1.69-8.19,13.72,13.72,0,0,0-4.69-5.07,25.34,25.34,0,0,0-8.6-3.32A62.74,62.74,0,0,0,197,218.37H179Z"/><path class="cls-11" d="M407.64,321.8m-57.83-33.6L324,342.39H306.54L263.06,195.11h15.81l36.4,126.69h.42L340,270.3Z"/><path class="cls-12" d="M438.54,287.61c-1.08,2.57-2.1,5.14-3.18,7.65-5.68,13.16-18.69,52.13-18.69,52.13H397.32S344.51,255,344.51,252s11.7-25.13,11.7-25.13l45.41,57.9c2.73-10.43,7.37-19.68,12.11-30.54,13.2-30.22,37.74-67,55.67-80.51,0,0,7.24-3.76,31.59-1.57s21.13,2.38,21.13,2.38S485.65,176,438.54,287.61Z"/><path class="cls-1" d="M8.15,482.09H2.66v-54H18.52a33.58,33.58,0,0,1,7.36.76,16.58,16.58,0,0,1,5.87,2.48,11.68,11.68,0,0,1,3.85,4.46A14.89,14.89,0,0,1,37,442.52a13.21,13.21,0,0,1-4,9.64A13.87,13.87,0,0,1,28.66,455a18.86,18.86,0,0,1-5.49,1.37l15.78,25.69H32.24L17.3,456.85H8.15Zm0-30h9.53q6.63,0,10.21-2.4a8.09,8.09,0,0,0,3.58-7.2,9.35,9.35,0,0,0-1-4.5,8.11,8.11,0,0,0-2.74-3,12.5,12.5,0,0,0-4.27-1.68,26.92,26.92,0,0,0-5.56-.53H8.15Z"/><path class="cls-1" d="M62,432.69a3.38,3.38,0,0,1-1.14,2.63,3.59,3.59,0,0,1-5,0,3.6,3.6,0,0,1,0-5.26,3.59,3.59,0,0,1,5,0A3.38,3.38,0,0,1,62,432.69ZM60.9,482.09H55.72V446.41H60.9Z"/><path class="cls-1" d="M84.22,489.25a17.21,17.21,0,0,0,5.83,4.65,18,18,0,0,0,14.29.8,11.23,11.23,0,0,0,4.31-3,12,12,0,0,0,2.4-4.46,19,19,0,0,0,.76-5.45v-6.71h-.15a13.64,13.64,0,0,1-5.83,5.18,17.4,17.4,0,0,1-7.66,1.83,20.06,20.06,0,0,1-7.58-1.37,17.19,17.19,0,0,1-5.79-3.77,16.79,16.79,0,0,1-3.74-5.76,19.4,19.4,0,0,1-1.33-7.24,19.2,19.2,0,0,1,1.33-7.16,18.07,18.07,0,0,1,3.74-5.87,17.28,17.28,0,0,1,5.79-4,19.15,19.15,0,0,1,7.58-1.45,17.15,17.15,0,0,1,7.62,1.83,14,14,0,0,1,5.87,5.26h.15v-6.17H117v35.37a26.07,26.07,0,0,1-.8,6.17,15.56,15.56,0,0,1-3,6,16.8,16.8,0,0,1-5.91,4.57,22.07,22.07,0,0,1-9.68,1.83,24,24,0,0,1-9.45-1.91,22.81,22.81,0,0,1-7.7-5.26Zm1-25.46a15.49,15.49,0,0,0,.91,5.34,13.35,13.35,0,0,0,2.63,4.42,12.21,12.21,0,0,0,4.23,3,14.08,14.08,0,0,0,5.72,1.1,14.83,14.83,0,0,0,5.49-1,12.57,12.57,0,0,0,4.34-2.82,13,13,0,0,0,2.86-4.38,15.07,15.07,0,0,0,1-5.68A13.9,13.9,0,0,0,104.2,451a13.12,13.12,0,0,0-5.49-1.14A13.68,13.68,0,0,0,93,451a12.67,12.67,0,0,0-4.23,3,13.35,13.35,0,0,0-2.63,4.42A15.49,15.49,0,0,0,85.22,463.79Z"/><path class="cls-1" d="M143.6,452.28a10.75,10.75,0,0,1,4.8-5,14.73,14.73,0,0,1,7.17-1.83q6.78,0,10.18,4t3.39,10.67v21.88H164V462.34a26.1,26.1,0,0,0-.46-5.11,10.71,10.71,0,0,0-1.56-3.93,7.49,7.49,0,0,0-3-2.55,10.64,10.64,0,0,0-4.69-.91,10,10,0,0,0-4,.84,9.82,9.82,0,0,0-3.47,2.55,12.75,12.75,0,0,0-2.44,4.34,19,19,0,0,0-.91,6.21v18.29h-5.18V424.46h5.18v27.82Z"/><path class="cls-1" d="M206.26,450.76H196.2v20.81a11.8,11.8,0,0,0,.38,3.28,4.63,4.63,0,0,0,1.11,2,3.75,3.75,0,0,0,1.72,1,8.14,8.14,0,0,0,2.13.27,8.94,8.94,0,0,0,2.25-.31A11.3,11.3,0,0,0,206,477l.23,4.5a15.3,15.3,0,0,1-2.86.8,18.42,18.42,0,0,1-3.24.27,13.16,13.16,0,0,1-3-.38,7.69,7.69,0,0,1-3-1.45,7.91,7.91,0,0,1-2.25-2.9A11.18,11.18,0,0,1,191,473V450.76h-7.39v-4.34H191V436.35h5.18v10.06h10.06Z"/><path class="cls-1" d="M261.07,474.54h.15l13.49-46.42h6.56l13.49,46.42h.15l13.19-46.42h5.79l-15.93,54h-6.4L278,435.74h-.15l-13.57,46.35h-6.4l-15.93-54h5.79Z"/><path class="cls-1" d="M349.18,459q0-4.61-2.44-6.88t-7.09-2.27a15.31,15.31,0,0,0-5.95,1.14,14.24,14.24,0,0,0-4.65,3l-2.9-3.43a17.13,17.13,0,0,1,5.83-3.66,21.94,21.94,0,0,1,8.19-1.45,17.76,17.76,0,0,1,5.41.8,12.85,12.85,0,0,1,4.42,2.4,10.89,10.89,0,0,1,3,4,14.18,14.18,0,0,1,1.07,5.72v15.63q0,2.06.15,4.27a29.8,29.8,0,0,0,.46,3.74H350q-.23-1.3-.38-2.82a29.66,29.66,0,0,1-.15-3h-.15a15,15,0,0,1-5.53,5.15,16.31,16.31,0,0,1-7.43,1.56,16.6,16.6,0,0,1-4.23-.57,11.83,11.83,0,0,1-4-1.87,10.56,10.56,0,0,1-3-3.37,10,10,0,0,1-1.18-5,9.61,9.61,0,0,1,2.1-6.54,12.58,12.58,0,0,1,5.6-3.6,32.92,32.92,0,0,1,8-1.53q4.53-.34,9.41-.34Zm-1.52,5.25q-3.2,0-6.44.27a28.14,28.14,0,0,0-5.87,1.07,11.1,11.1,0,0,0-4.31,2.33,5.2,5.2,0,0,0-1.68,4,6.48,6.48,0,0,0,.72,3.2,5.92,5.92,0,0,0,1.94,2.1,8.27,8.27,0,0,0,2.71,1.14,13.36,13.36,0,0,0,3,.34,11.85,11.85,0,0,0,4.88-1,10.32,10.32,0,0,0,3.58-2.59,11.46,11.46,0,0,0,2.21-3.77,13.28,13.28,0,0,0,.76-4.5v-2.67Z"/><path class="cls-1" d="M387.3,476.52h.15l11.05-30.11h5.64l-17.76,44.9a18.85,18.85,0,0,1-4.08,6.59q-2.48,2.48-7.13,2.48a23.63,23.63,0,0,1-4.65-.46l.53-4.73a12,12,0,0,0,3.81.61,5.45,5.45,0,0,0,4.19-1.64,14.17,14.17,0,0,0,2.67-4.69l2.9-7.47-15.25-35.6h5.79Z"/><path class="cls-1" d="M473,436.81a13.2,13.2,0,0,0-4.5-3.93,13.76,13.76,0,0,0-6.63-1.49,14.21,14.21,0,0,0-4,.61,11.72,11.72,0,0,0-3.74,1.87,9.61,9.61,0,0,0-2.71,3.16,9.33,9.33,0,0,0-1,4.5,8.31,8.31,0,0,0,1,4.27,9.38,9.38,0,0,0,2.62,2.86,15.19,15.19,0,0,0,3.73,1.94q2.09.76,4.37,1.52,2.81.92,5.66,2a20.36,20.36,0,0,1,5.13,2.78,13.47,13.47,0,0,1,3.72,4.34,13.76,13.76,0,0,1,1.44,6.67,14.82,14.82,0,0,1-1.54,7,14.62,14.62,0,0,1-4,4.84,16.64,16.64,0,0,1-5.62,2.82,22.84,22.84,0,0,1-6.37.91,24.56,24.56,0,0,1-4.88-.5,22.14,22.14,0,0,1-4.65-1.49,18.85,18.85,0,0,1-4.12-2.51,18.23,18.23,0,0,1-3.35-3.51l4.73-3.51a14.45,14.45,0,0,0,4.92,4.84,13.91,13.91,0,0,0,7.43,1.94,14.36,14.36,0,0,0,4.19-.65,11.76,11.76,0,0,0,3.85-2,11,11,0,0,0,2.82-3.28,10.17,10.17,0,0,0,0-9.22,9.86,9.86,0,0,0-2.93-3.13,18,18,0,0,0-4.19-2.1q-2.36-.84-5-1.68t-5.26-1.91a17.74,17.74,0,0,1-4.65-2.78,13,13,0,0,1-3.32-4.23,15.46,15.46,0,0,1,.31-12.88,14.13,14.13,0,0,1,4.08-4.65,17.11,17.11,0,0,1,5.56-2.67,22.66,22.66,0,0,1,6-.84,20.78,20.78,0,0,1,9.38,1.94,16.11,16.11,0,0,1,5.87,4.61Z"/><path class="cls-1" d="M502.32,500.38h-5.18v-54h5.18v6.17h.23a14.15,14.15,0,0,1,5.91-5.3A17.06,17.06,0,0,1,516,445.5a19.16,19.16,0,0,1,7.58,1.45,17.3,17.3,0,0,1,5.79,4,17.91,17.91,0,0,1,3.74,5.95,21.16,21.16,0,0,1,0,14.79,17.91,17.91,0,0,1-3.74,5.95,17.28,17.28,0,0,1-5.79,4A19.14,19.14,0,0,1,516,483a17.06,17.06,0,0,1-7.51-1.79,14.48,14.48,0,0,1-5.91-5.15h-.23Zm26.6-36.13a16.94,16.94,0,0,0-.91-5.6,13.56,13.56,0,0,0-2.63-4.57,12.4,12.4,0,0,0-4.23-3.09,13.68,13.68,0,0,0-5.72-1.14,13.49,13.49,0,0,0-5.49,1.11,13.18,13.18,0,0,0-4.34,3,14.09,14.09,0,0,0-2.86,4.57,16.18,16.18,0,0,0,0,11.36,13.64,13.64,0,0,0,2.86,4.54,13.46,13.46,0,0,0,9.83,4.12,14.08,14.08,0,0,0,5.72-1.11,12,12,0,0,0,4.23-3,13.56,13.56,0,0,0,2.63-4.57A16.94,16.94,0,0,0,528.92,464.25Z"/><path class="cls-1" d="M588.61,464.25a19.46,19.46,0,0,1-1.41,7.47,17.6,17.6,0,0,1-9.95,9.87,20.47,20.47,0,0,1-7.7,1.41,20.26,20.26,0,0,1-7.62-1.41,17.6,17.6,0,0,1-9.95-9.87,20.48,20.48,0,0,1,0-14.94,17.6,17.6,0,0,1,9.95-9.87,20.26,20.26,0,0,1,7.62-1.41,20.47,20.47,0,0,1,7.7,1.41,17.6,17.6,0,0,1,9.95,9.87A19.46,19.46,0,0,1,588.61,464.25Zm-5.49,0a16.34,16.34,0,0,0-1-5.6,13.74,13.74,0,0,0-2.71-4.57,12.82,12.82,0,0,0-4.27-3.09,13.49,13.49,0,0,0-5.64-1.14,13.22,13.22,0,0,0-5.6,1.14,12.9,12.9,0,0,0-4.23,3.09,13.69,13.69,0,0,0-2.71,4.57,16.95,16.95,0,0,0,0,11.21,13.69,13.69,0,0,0,2.71,4.57,12.42,12.42,0,0,0,4.23,3,13.6,13.6,0,0,0,5.6,1.11,13.88,13.88,0,0,0,5.64-1.11,12.36,12.36,0,0,0,4.27-3,13.74,13.74,0,0,0,2.71-4.57A16.34,16.34,0,0,0,583.12,464.25Z"/><path class="cls-1" d="M607.28,450.53q-.08-2.29-.23-4.12h5q.15,1.45.23,3.2t.08,2.9h.15a12.35,12.35,0,0,1,4.57-5.07,12.48,12.48,0,0,1,6.86-1.94q1,0,1.79.08a9.88,9.88,0,0,1,1.64.31l-.69,5a9.77,9.77,0,0,0-1.52-.31,15.07,15.07,0,0,0-2.13-.15,10.59,10.59,0,0,0-4,.76,8.5,8.5,0,0,0-3.32,2.4,12.58,12.58,0,0,0-2.29,4.18,18.88,18.88,0,0,0-.88,6.12v18.25h-5.18V454.26Q607.36,452.82,607.28,450.53Z"/><path class="cls-1" d="M665.26,450.76H655.2v20.81a11.8,11.8,0,0,0,.38,3.28,4.63,4.63,0,0,0,1.11,2,3.75,3.75,0,0,0,1.72,1,8.14,8.14,0,0,0,2.13.27,8.94,8.94,0,0,0,2.25-.31A11.3,11.3,0,0,0,665,477l.23,4.5a15.3,15.3,0,0,1-2.86.8,18.42,18.42,0,0,1-3.24.27,13.16,13.16,0,0,1-3-.38,7.69,7.69,0,0,1-3-1.45,7.91,7.91,0,0,1-2.25-2.9A11.18,11.18,0,0,1,650,473V450.76h-7.39v-4.34H650V436.35h5.18v10.06h10.06Z"/><path class="cls-1" d="M706.1,454.87a9.1,9.1,0,0,0-3.47-3.62,10,10,0,0,0-5.3-1.41,12.61,12.61,0,0,0-2.74.31,7.49,7.49,0,0,0-2.44,1,5.38,5.38,0,0,0-1.72,1.75,4.76,4.76,0,0,0-.65,2.52,4.31,4.31,0,0,0,2.06,3.85,19.75,19.75,0,0,0,6.48,2.25q6.33,1.3,9.34,3.77a8.19,8.19,0,0,1,3,6.67,9.86,9.86,0,0,1-4.27,8.58,12.44,12.44,0,0,1-4.31,1.91,20.78,20.78,0,0,1-4.84.57,19.32,19.32,0,0,1-7.85-1.68,14.53,14.53,0,0,1-6.25-5.26l4.12-3a11.65,11.65,0,0,0,9.91,5.56,16.29,16.29,0,0,0,3.2-.31,7.33,7.33,0,0,0,2.67-1.07,5.47,5.47,0,0,0,2.52-4.88,4.53,4.53,0,0,0-2.71-4.23,35.42,35.42,0,0,0-7.81-2.63q-1.6-.38-3.39-1a11.6,11.6,0,0,1-3.32-1.68,9.1,9.1,0,0,1-2.52-2.78,8.13,8.13,0,0,1-1-4.19,9.61,9.61,0,0,1,1.07-4.69,9.34,9.34,0,0,1,2.86-3.2,12.77,12.77,0,0,1,4.08-1.87,18.3,18.3,0,0,1,4.73-.61,16.62,16.62,0,0,1,7.24,1.68,11.69,11.69,0,0,1,5.26,4.73Z"/><polygon class="cls-2" points="319.84 10.49 330.56 9.79 326.53 9.15 318.09 9.79 319.84 10.49"/><polygon class="cls-2" points="328.75 9.79 334.75 18.13 335.57 16.41 330.56 9.79 328.75 9.79"/><polygon class="cls-2" points="336.08 18.95 333.17 27.25 334.63 35.76 331.79 30.77 332.68 24.63 335.57 18.13 336.08 18.95"/><polygon class="cls-2" points="335.57 18.75 340.38 19.45 338.61 17.52 335.57 18.75"/><polygon class="cls-2" points="325.51 44.17 334.75 36.4 328.24 38.18 324.9 43 325.51 44.17"/><polygon class="cls-2" points="305.82 46.79 308.39 38.18 306.56 38.18 301.96 44.41 305.82 46.79"/><polygon class="cls-2" points="301.57 11.4 311.49 4.56 309.79 8.51 304.31 11.81 301.57 11.4"/><polygon class="cls-2" points="319.13 8.51 329.59 8.19 325.59 9.22 320.69 9.59 319.13 8.51"/><path id="path3519" class="cls-1" d="M103.27,153.55c-1.67,1.67-1.94,5.56-2.22,6.67s.25,20.39.9,23.43c0,0-2,28.54-3.12,31.32s-.29,5.56.82,8.89,2.23,18.9,2.23,21.67.84,24.73.84,28.62-2.5,22.79-2.78,25.56-5.3,17.22-6.69,20.83-1.09,8.35-1.65,10.57-6.11,16.94-6.11,20.55V375c-.83,3.06-3.61,2.78-6.38,1.11s-3.07-6.39-5-12.22-2.22-5.83-1.11-9.17,3.33-2.23,5-3.62,1.67-6.95,1.67-6.95S79.1,329.72,80.77,325s1.33-3.87,1.51-6.5l1.83-27.4c0-4.17-2.5-6.67-2.78-5L48.54,308s-19.84,14.14-21.4,15c-3.33,1.11-9.17,8.9-9.73,10.56s-2.78,4.28-5,6.11-9.73,3-11.76.8,1-8.46,3.14-10,3.61-1.67,5-2.51,5.84-3.33,5.84-3.33l7.22-6.11s3.87-5.86,6.4-9.45,18.34-13.06,20.56-15,8.89-12.51,8.89-12.51.28-1.1-1.95-2.49-1.95-1.67-1.95-1.67,2.83-8.51,6.67-11.4,11.94-5,13.6-6.66,2.23-4,2.23-8.62S71,237.74,69.38,236.35s-2.51-2.77-4.45-1.38-13.33,5.56-13.33,5.56-7.52,4.57-9.73,5.27-20.28,3.34-22.78,4.73a8.29,8.29,0,0,1-5.56.55,2,2,0,0,1-1.67,2.22c-1.95.56-4.16-.82-5.55-1.93s-1.95-3.62,0-6.12,8.05.28,11.38.56,13.9-5.56,16.13-6.95,19.44-7,20.55-7.23,3.56-4.39,5.84-6.11S72.44,220,72.44,220l.84-2.51-3.62-1.95a11.34,11.34,0,0,1-2.78,3.06c-1.39.83-2.78,0-4.73-1.11s-.56-2.5,0-5.84,3.34-.84,3.34-.84-.56-4.72-.56-6.95,5-5.84,9.17-6.67a10.42,10.42,0,0,1,7,.84l2.49,3.06,1.67,1.12v1.95s1.39,3.89,1.95,5-.28,1.94-1.11,3.06,0,3.6,0,3.6,2.22-.27,2.22-1.38,2.22-5.55,3.33-8.06a21.14,21.14,0,0,0,1.67-6.95c.28-2.5,1.05-7.68,1.05-9.9s2.28-13.44,2.28-16.77a96.88,96.88,0,0,0-1.38-11.12L93,159.38c-1.11-1.11-.55-2.5.84-4.16"/><ellipse class="cls-1" cx="65.14" cy="214.24" rx="5" ry="4.78"/><path class="cls-1" d="M93.84,155.22s9.53-2.31,9.82-2-1.86,2.85-2.16,4.59a25,25,0,0,0-.58,7C101,169.57,93.84,155.22,93.84,155.22Z"/></g></g></svg>